<svg width="20" height="22" viewBox="0 0 20 22" fill="none" xmlns="http://www.w3.org/2000/svg">
<path d="M1.34006 16C0.917331 15.269 0.588725 14.4875 0.362061 13.674C0.855368 13.4231 1.26965 13.0406 1.55909 12.5689C1.84852 12.0972 2.00183 11.5546 2.00203 11.0011C2.00224 10.4477 1.84934 9.90495 1.56026 9.43301C1.27118 8.96106 0.85718 8.57828 0.364061 8.32701C0.816097 6.69249 1.67679 5.19996 2.86506 3.99001C3.32915 4.29173 3.86768 4.45917 4.42104 4.47379C4.9744 4.48841 5.52101 4.34964 6.00039 4.07284C6.47977 3.79604 6.87321 3.392 7.13719 2.90545C7.40116 2.41889 7.52537 1.86878 7.49606 1.31601C9.13817 0.891628 10.8613 0.892317 12.5031 1.31801C12.474 1.87077 12.5985 2.4208 12.8626 2.90721C13.1268 3.39363 13.5204 3.79748 13.9999 4.07407C14.4794 4.35065 15.026 4.48919 15.5793 4.47436C16.1327 4.45952 16.6711 4.29189 17.1351 3.99001C17.7141 4.58001 18.2281 5.25101 18.6601 6.00001C19.0931 6.74901 19.4171 7.53001 19.6381 8.32601C19.1448 8.57691 18.7305 8.95938 18.441 9.43111C18.1516 9.90284 17.9983 10.4454 17.9981 10.9989C17.9979 11.5523 18.1508 12.0951 18.4399 12.567C18.7289 13.039 19.1429 13.4217 19.6361 13.673C19.184 15.3075 18.3233 16.8001 17.1351 18.01C16.671 17.7083 16.1324 17.5408 15.5791 17.5262C15.0257 17.5116 14.4791 17.6504 13.9997 17.9272C13.5204 18.204 13.1269 18.608 12.8629 19.0946C12.599 19.5811 12.4748 20.1312 12.5041 20.684C10.862 21.1084 9.13883 21.1077 7.49706 20.682C7.52611 20.1292 7.40166 19.5792 7.13748 19.0928C6.8733 18.6064 6.4797 18.2025 6.00023 17.9259C5.52076 17.6494 4.97412 17.5108 4.42079 17.5257C3.86746 17.5405 3.32902 17.7081 2.86506 18.01C2.27405 17.407 1.76166 16.7316 1.34006 16ZM7.00006 16.196C8.06569 16.8106 8.86691 17.797 9.25006 18.966C9.74906 19.013 10.2501 19.014 10.7491 18.967C11.1325 17.7979 11.9341 16.8114 13.0001 16.197C14.0653 15.5807 15.3206 15.3795 16.5251 15.632C16.8151 15.224 17.0651 14.789 17.2731 14.334C16.4525 13.4174 15.9992 12.2302 16.0001 11C16.0001 9.74001 16.4701 8.56301 17.2731 7.66601C17.0636 7.21115 16.8125 6.77664 16.5231 6.36801C15.3193 6.62032 14.0649 6.41948 13.0001 5.80401C11.9344 5.18938 11.1332 4.20299 10.7501 3.03401C10.2511 2.98701 9.75006 2.98601 9.25106 3.03301C8.86766 4.20215 8.06606 5.18857 7.00006 5.80301C5.93484 6.41932 4.67954 6.62053 3.47506 6.36801C3.18563 6.77629 2.93519 7.21087 2.72706 7.66601C3.54763 8.58257 4.00094 9.7698 4.00006 11C4.00006 12.26 3.53006 13.437 2.72706 14.334C2.93653 14.7889 3.1876 15.2234 3.47706 15.632C4.68078 15.3797 5.93527 15.5805 7.00006 16.196ZM10.0001 14C9.20441 14 8.44135 13.6839 7.87874 13.1213C7.31613 12.5587 7.00006 11.7957 7.00006 11C7.00006 10.2044 7.31613 9.44129 7.87874 8.87869C8.44135 8.31608 9.20441 8.00001 10.0001 8.00001C10.7957 8.00001 11.5588 8.31608 12.1214 8.87869C12.684 9.44129 13.0001 10.2044 13.0001 11C13.0001 11.7957 12.684 12.5587 12.1214 13.1213C11.5588 13.6839 10.7957 14 10.0001 14ZM10.0001 12C10.2653 12 10.5196 11.8946 10.7072 11.7071C10.8947 11.5196 11.0001 11.2652 11.0001 11C11.0001 10.7348 10.8947 10.4804 10.7072 10.2929C10.5196 10.1054 10.2653 10 10.0001 10C9.73484 10 9.48049 10.1054 9.29295 10.2929C9.10542 10.4804 9.00006 10.7348 9.00006 11C9.00006 11.2652 9.10542 11.5196 9.29295 11.7071C9.48049 11.8946 9.73484 12 10.0001 12Z" fill="#B9C1D9"/>
</svg>
